# xmcd
#
# Track frame offsets: 
#        150
#        13212
#        24323
#        37846
#        52247
#        65442
#        79723
#        92649
#        101418
#        113987
#        124126
#        135127
#        146566
#        157912
#        169299
#        181327
#        194137
#        206099
#        218394
#        233187
#        244339
#        255512
#        268197
#        279692
#
# Disc length: 3881 seconds
#
# Revision: 1
# Processed by: cddbd v1.5.2PL0 Copyright (c) Steve Scherf et al.
# Submitted via: ExactAudioCopy v1.1
#
DISCID=580f2718
DTITLE=Various Artist - The Complete Motown Singles Volume 7 [CD34
DTITLE=)
DYEAR=2007
DGENRE=R&B
TTITLE0=Brenda Holloway - Just Look What You've Done (mono)
TTITLE1=Brenda Holloway - Starting The Hurt All Over Again (mono)
TTITLE2=Barbara McNair - Here I Am Baby (mono)
TTITLE3=Barbara McNair - My World Is Empty Without You (mono)
TTITLE4=Gladys Knight and The Pips - Take Me In Your Arms And Love Me (m
TTITLE4=ono)
TTITLE5=Gladys Knight and The Pips - Do You Love Me Just A Little, Honey
TTITLE5=(mono)
TTITLE6=The Supremes - The Happening (mono)
TTITLE7=The Supremes - All I Know About You (mono)
TTITLE8=The Isley Brothers - Got To Have You Back (mono)
TTITLE9=The Isley Brothers - Just Ain't Enough Love (mono)
TTITLE10=R. Dean Taylor - There's A Ghost In My House (mono)
TTITLE11=R. Dean Taylor - Don't Fool Around (mono)
TTITLE12=The San Remo Golden Strings - Festival Time (mono)
TTITLE13=The San Remo Golden Strings - Joy Road (mono)
TTITLE14=Billy Eckstine - I Wonder Why (Nobody Loves Me) (mono)
TTITLE15=Billy Eckstine - I've Been Blessed (mono)
TTITLE16=The Marvelettes - When You're Young And In Love (mono)
TTITLE17=The Marvelettes - The Day You Take One (You Have To Take The 
TTITLE17=Other) (mono)
TTITLE18=The Temptations - All I Need (mono)
TTITLE19=The Temptations - Sorry Is A Sorry Word (mono)
TTITLE20=Marvin Gaye and Tammi Terrell - Ain't No Mountain High Enough (
TTITLE20=mono)
TTITLE21=Marvin Gaye and Tammi Terrell - Give A Little Love (mono)
TTITLE22=The Four Tops - 7 Rooms Of Gloom (mono)
TTITLE23=The Four Tops - I'll Turn To Stone (mono)
EXTD=
EXTT0=
EXTT1=
EXTT2=
EXTT3=
EXTT4=
EXTT5=
EXTT6=
EXTT7=
EXTT8=
EXTT9=
EXTT10=
EXTT11=
EXTT12=
EXTT13=
EXTT14=
EXTT15=
EXTT16=
EXTT17=
EXTT18=
EXTT19=
EXTT20=
EXTT21=
EXTT22=
EXTT23=
PLAYORDER=
